<svg xmlns="http://www.w3.org/2000/svg" xml:space="preserve" width="2.66666in" height="2.66666in" version="1.1" style="shape-rendering:geometricPrecision; text-rendering:geometricPrecision; image-rendering:optimizeQuality; fill-rule:evenodd; clip-rule:evenodd" viewBox="0 0 2666.66 2666.66" xmlns:xlink="http://www.w3.org/1999/xlink" xmlns:xodm="http://www.corel.com/coreldraw/odm/2003">
<defs>
<style type="text/css">
   
    .fil1 {fill:#FEFEFE}
    .fil0 {fill:#007ACC}
   
  </style>
</defs>
<g id="Layer_x0020_1">
<metadata id="CorelCorpID_0Corel-Layer"></metadata>
<circle class="fil0" cx="1333.33" cy="1333.33" r="1333.33" id="id_101" style="fill: rgb(0, 122, 204);"></circle>
<path class="fil1" d="M810.85 1933.88l-158.72 0c-11.04,0 -20,-8.97 -20,-20l0 -176.86c0,-11.04 8.96,-20 20,-20l158.72 0c11.04,0 20,8.97 20,20l0 176.86c0,11.04 -8.96,20 -20,20z" id="id_102"></path>
<path class="fil1" d="M1111.78 1933.88l-158.74 0c-11.04,0 -20,-8.97 -20,-20l0 -176.86c0,-11.04 8.96,-20 20,-20l158.74 0c11.04,0 20,8.97 20,20l0 176.86c0,11.04 -8.96,20 -20,20z" id="id_103"></path>
<path class="fil1" d="M1412.7 1933.88l-158.73 0c-11.04,0 -20,-8.97 -20,-20l0 -176.86c0,-11.04 8.96,-20 20,-20l158.73 0c11.04,0 20,8.97 20,20l0 176.86c0,11.04 -8.96,20 -20,20z" id="id_104"></path>
<path class="fil1" d="M1713.62 1933.88l-158.72 0c-11.04,0 -20,-8.97 -20,-20l0 -176.86c0,-11.04 8.97,-20 20,-20l158.72 0c11.04,0 20,8.97 20,20l0 176.86c0,11.04 -8.96,20 -20,20z" id="id_105"></path>
<path class="fil1" d="M2014.54 1933.88l-158.73 0c-11.04,0 -20,-8.97 -20,-20l0 -176.86c0,-11.04 8.97,-20 20,-20l158.73 0c11.04,0 20,8.97 20,20l0 176.86c0,11.04 -8.96,20 -20,20z" id="id_106"></path>
<path class="fil1" d="M2085.83 2077.01l-1505 0c-55.6,0 -100.83,-45.23 -100.83,-100.83l0 -1128.75c0,-55.6 45.23,-100.83 100.83,-100.83l221.77 -0 0 130.98c0,7.18 1.45,14.03 4.07,20.26 -22.11,3.52 -20.9,38.95 3.65,38.95l189.74 0c24.56,0 25.75,-35.46 3.63,-38.95 2.62,-6.23 4.07,-13.07 4.07,-20.26l0 -130.98 223 0 0 130.98c0,7.18 1.45,14.02 4.07,20.26 -22.13,3.5 -20.92,38.95 3.63,38.95l189.74 0c24.55,0 25.76,-35.44 3.64,-38.95 2.62,-6.23 4.08,-13.07 4.08,-20.26l0 -130.98 222.97 0 0 130.98c0,7.18 1.44,14.02 4.07,20.26 -22.11,3.51 -20.91,38.95 3.64,38.95l189.75 0c24.55,0 25.76,-35.45 3.63,-38.95 2.62,-6.23 4.08,-13.07 4.08,-20.26l0 -130.98 221.77 0c55.61,0 100.83,45.22 100.83,100.83l0 1128.75c0,55.61 -45.22,100.84 -100.83,100.84zm-1533.91 -986.17l0 885.33c0,15.93 12.97,28.9 28.91,28.9l1505 0c15.93,0 28.89,-12.96 28.89,-28.9l-0 -885.33 -1562.8 0z" id="id_107"></path>
<path class="fil1" d="M955.46 897.19l-100.55 0c-10.83,0 -19.62,-8.79 -19.62,-19.61l0 -218.93c0,-91.98 139.77,-91.98 139.77,0l0 218.93c0.01,10.83 -8.76,19.61 -19.6,19.61z" id="id_108"></path>
<path class="fil1" d="M1383.6 897.19l-100.54 0c-10.83,0 -19.62,-8.79 -19.62,-19.61l0 -218.93c0,-91.99 139.79,-91.97 139.79,0l0 218.93c0,10.83 -8.8,19.61 -19.63,19.61z" id="id_109"></path>
<path class="fil1" d="M1811.74 897.19l-100.54 0c-10.83,0 -19.61,-8.79 -19.61,-19.61l0 -218.93c0,-91.98 139.78,-91.98 139.78,0l0 218.93c0,10.83 -8.8,19.61 -19.63,19.61z" id="id_110"></path>
<path class="fil1" d="M810.85 1656.79l-158.72 0c-11.04,0 -20,-8.97 -20,-20l0 -176.86c0,-11.04 8.96,-20 20,-20l158.72 0c11.04,0 20,8.97 20,20l0 176.86c0,11.04 -8.96,20 -20,20z" id="id_111"></path>
<path class="fil1" d="M1111.78 1656.79l-158.74 0c-11.04,0 -20,-8.97 -20,-20l0 -176.86c0,-11.04 8.96,-20 20,-20l158.74 0c11.04,0 20,8.97 20,20l0 176.86c0,11.04 -8.96,20 -20,20z" id="id_112"></path>
<path class="fil1" d="M1412.7 1656.79l-158.73 0c-11.04,0 -20,-8.97 -20,-20l0 -176.86c0,-11.04 8.96,-20 20,-20l158.73 0c11.04,0 20,8.97 20,20l0 176.86c0,11.04 -8.96,20 -20,20z" id="id_113"></path>
<path class="fil1" d="M1713.62 1656.79l-158.72 0c-11.04,0 -20,-8.97 -20,-20l0 -176.86c0,-11.04 8.97,-20 20,-20l158.72 0c11.04,0 20,8.97 20,20l0 176.86c0,11.04 -8.96,20 -20,20z" id="id_114"></path>
<path class="fil1" d="M2014.54 1656.79l-158.73 0c-11.04,0 -20,-8.97 -20,-20l0 -176.86c0,-11.04 8.97,-20 20,-20l158.73 0c11.04,0 20,8.97 20,20l0 176.86c0,11.04 -8.96,20 -20,20z" id="id_115"></path>
<path class="fil1" d="M810.85 1379.7l-158.72 0c-11.04,0 -20,-8.97 -20,-20l0 -176.86c0,-11.04 8.96,-20 20,-20l158.72 0c11.04,0 20,8.97 20,20l0 176.86c0,11.04 -8.96,20 -20,20z" id="id_116"></path>
<path class="fil1" d="M1111.78 1379.7l-158.74 0c-11.04,0 -20,-8.97 -20,-20l0 -176.86c0,-11.04 8.96,-20 20,-20l158.74 0c11.04,0 20,8.97 20,20l0 176.86c0,11.04 -8.96,20 -20,20z" id="id_117"></path>
<path class="fil1" d="M1412.7 1379.7l-158.73 0c-11.04,0 -20,-8.97 -20,-20l0 -176.86c0,-11.04 8.96,-20 20,-20l158.73 0c11.04,0 20,8.97 20,20l0 176.86c0,11.04 -8.96,20 -20,20z" id="id_118"></path>
<path class="fil1" d="M1713.62 1379.7l-158.72 0c-11.04,0 -20,-8.97 -20,-20l0 -176.86c0,-11.04 8.97,-20 20,-20l158.72 0c11.04,0 20,8.97 20,20l0 176.86c0,11.04 -8.96,20 -20,20z" id="id_119"></path>
<path class="fil1" d="M2014.54 1379.7l-158.73 0c-11.04,0 -20,-8.97 -20,-20l0 -176.86c0,-11.04 8.97,-20 20,-20l158.73 0c11.04,0 20,8.97 20,20l0 176.86c0,11.04 -8.96,20 -20,20z" id="id_120"></path>
</g>
</svg>